<?xml version="1.0" encoding="utf-8"?>
<!-- Generator: Adobe Illustrator 27.0.0, SVG Export Plug-In . SVG Version: 6.00 Build 0)  -->
<svg version="1.1" id="图层_1" xmlns="http://www.w3.org/2000/svg" xmlns:xlink="http://www.w3.org/1999/xlink" x="0px" y="0px"
	 viewBox="0 0 798.6 563.1" style="enable-background:new 0 0 798.6 563.1;" xml:space="preserve">
<style type="text/css">
	.st0{fill:none;stroke:#57606E;stroke-width:5.5;stroke-linecap:round;stroke-miterlimit:10;}
	.st1{enable-background:new    ;}
	.st2{fill:#57606E;}
	.st3{fill:#57606E;stroke:#57606E;stroke-width:13;stroke-linecap:round;stroke-linejoin:round;stroke-miterlimit:10;}
	.st4{fill:none;stroke:#57606E;stroke-width:13;stroke-linecap:round;stroke-miterlimit:10;}
	.st5{fill:none;stroke:#57606E;stroke-width:12.0171;stroke-linecap:round;stroke-miterlimit:10;}
</style>
<line class="st0" x1="441.3" y1="207.7" x2="441.3" y2="242.7"/>
<g id="图层_5">
	<g>
		<g class="st1">
			<path class="st2" d="M154.9,444.2l-53,86.1H157v7.2H92.6v-6l53-86.1H94v-7.2h60.8V444.2z"/>
			<path class="st2" d="M194.1,438.1v92.1h48.4v7.2h-55.6v-99.4H194.1z"/>
			<path class="st2" d="M397.9,537.5h-7.6l-11.9-35h-36.5l-11.9,35h-7.7l34-99.4h7.6L397.9,537.5z M359.9,449.3l-15.6,46H376
				l-15.6-46H359.9z"/>
			<path class="st2" d="M477.5,468.4v69.1h-7v-12.2H470c-2.1,4.4-5.1,7.8-9.1,10.3c-4,2.5-8.4,3.7-13.2,3.7
				c-7.4,0-13.1-2.4-17.3-7.3c-4.1-4.9-6.2-11.7-6.2-20.4v-43.2h7v41.9c0,7,1.6,12.5,4.9,16.4c3.3,3.9,7.7,5.9,13.2,5.9
				c4.1,0,7.8-1,11.1-3.1c3.2-2.1,5.7-4.9,7.5-8.4c1.8-3.5,2.7-7.4,2.7-11.6v-41.1H477.5z"/>
			<path class="st2" d="M566.7,537.5h-6.8v-13.4h-0.5c-2.2,4.8-5.2,8.6-9.1,11.2c-3.9,2.7-8.4,4-13.5,4c-5.4,0-10.2-1.6-14.5-4.7
				c-4.3-3.2-7.6-7.5-10-13.1c-2.4-5.6-3.6-11.9-3.6-18.9c0-6.9,1.2-13.1,3.6-18.6c2.4-5.5,5.7-9.7,10-12.8
				c4.3-3.1,9.1-4.6,14.5-4.6c4.8,0,9.2,1.4,13.1,4.1c3.9,2.8,7.1,6.5,9.5,11.4h0.5v-43.9h6.8V537.5z M557.2,487.9
				c-1.9-4.4-4.5-7.9-7.8-10.4c-3.4-2.5-7.1-3.7-11.4-3.7c-4.3,0-8.2,1.2-11.5,3.7c-3.4,2.5-6,5.9-7.9,10.3
				c-1.9,4.4-2.9,9.5-2.9,15.2c0,5.7,1,10.8,2.9,15.2c1.9,4.4,4.6,7.9,8.1,10.3c3.4,2.5,7.3,3.7,11.6,3.7c4.2,0,8-1.2,11.3-3.7
				c3.3-2.5,5.9-5.9,7.7-10.3c1.8-4.4,2.7-9.4,2.7-15C560,497.4,559.1,492.3,557.2,487.9z"/>
			<path class="st2" d="M609.8,445.9c-1,1-2.3,1.5-4,1.5c-1.6,0-2.8-0.5-3.7-1.5c-0.9-1-1.4-2.3-1.4-4c0-1.8,0.5-3.1,1.4-4.1
				c0.9-1,2.2-1.5,3.7-1.5c1.7,0,3,0.5,4,1.6c1,1.1,1.5,2.4,1.5,4.1C611.3,443.6,610.8,444.9,609.8,445.9z M609.4,468.4v69.3h-7
				v-69.3H609.4z"/>
			<path class="st2" d="M656,534.8c-4.4-3-7.8-7.3-10.2-12.8c-2.4-5.5-3.7-11.9-3.7-19.1c0-7.2,1.2-13.5,3.7-19.1
				c2.4-5.5,5.9-9.8,10.2-12.8c4.4-3,9.4-4.5,15.1-4.5c5.8,0,10.9,1.5,15.3,4.5c4.4,3,7.8,7.3,10.2,12.8s3.7,11.9,3.7,19.1
				c0,7.2-1.2,13.5-3.7,19.1s-5.9,9.8-10.2,12.8c-4.4,3-9.5,4.5-15.3,4.5C665.4,539.3,660.4,537.8,656,534.8z M682.8,528.8
				c3.4-2.5,6-5.9,7.8-10.4c1.9-4.5,2.8-9.6,2.8-15.5c0-5.9-0.9-11-2.8-15.5c-1.9-4.5-4.5-7.9-7.8-10.4c-3.4-2.5-7.2-3.7-11.6-3.7
				c-4.4,0-8.2,1.2-11.5,3.7c-3.3,2.5-5.9,5.9-7.8,10.4s-2.8,9.6-2.8,15.5c0,5.9,0.9,11,2.8,15.5s4.4,7.9,7.8,10.4
				c3.3,2.5,7.2,3.7,11.5,3.7C675.5,532.5,679.4,531.3,682.8,528.8z"/>
		</g>
		<g class="st1">
			<path class="st3" d="M154.9,444.2l-53,86.1H157v7.2H92.6v-6l53-86.1H94v-7.2h60.8V444.2z"/>
			<path class="st3" d="M194.1,438.1v92.1h48.4v7.2h-55.6v-99.4H194.1z"/>
			<path class="st3" d="M397.9,537.5h-7.6l-11.9-35h-36.5l-11.9,35h-7.7l34-99.4h7.6L397.9,537.5z M359.9,449.3l-15.6,46H376
				l-15.6-46H359.9z"/>
			<path class="st3" d="M477.5,468.4v69.1h-7v-12.2H470c-2.1,4.4-5.1,7.8-9.1,10.3c-4,2.5-8.4,3.7-13.2,3.7
				c-7.4,0-13.1-2.4-17.3-7.3c-4.1-4.9-6.2-11.7-6.2-20.4v-43.2h7v41.9c0,7,1.6,12.5,4.9,16.4c3.3,3.9,7.7,5.9,13.2,5.9
				c4.1,0,7.8-1,11.1-3.1c3.2-2.1,5.7-4.9,7.5-8.4c1.8-3.5,2.7-7.4,2.7-11.6v-41.1H477.5z"/>
			<path class="st3" d="M566.7,537.5h-6.8v-13.4h-0.5c-2.2,4.8-5.2,8.6-9.1,11.2c-3.9,2.7-8.4,4-13.5,4c-5.4,0-10.2-1.6-14.5-4.7
				c-4.3-3.2-7.6-7.5-10-13.1c-2.4-5.6-3.6-11.9-3.6-18.9c0-6.9,1.2-13.1,3.6-18.6c2.4-5.5,5.7-9.7,10-12.8
				c4.3-3.1,9.1-4.6,14.5-4.6c4.8,0,9.2,1.4,13.1,4.1c3.9,2.8,7.1,6.5,9.5,11.4h0.5v-43.9h6.8V537.5z M557.2,487.9
				c-1.9-4.4-4.5-7.9-7.8-10.4c-3.4-2.5-7.1-3.7-11.4-3.7c-4.3,0-8.2,1.2-11.5,3.7c-3.4,2.5-6,5.9-7.9,10.3
				c-1.9,4.4-2.9,9.5-2.9,15.2c0,5.7,1,10.8,2.9,15.2c1.9,4.4,4.6,7.9,8.1,10.3c3.4,2.5,7.3,3.7,11.6,3.7c4.2,0,8-1.2,11.3-3.7
				c3.3-2.5,5.9-5.9,7.7-10.3c1.8-4.4,2.7-9.4,2.7-15C560,497.4,559.1,492.3,557.2,487.9z"/>
			<path class="st3" d="M609.8,445.9c-1,1-2.3,1.5-4,1.5c-1.6,0-2.8-0.5-3.7-1.5c-0.9-1-1.4-2.3-1.4-4c0-1.8,0.5-3.1,1.4-4.1
				c0.9-1,2.2-1.5,3.7-1.5c1.7,0,3,0.5,4,1.6c1,1.1,1.5,2.4,1.5,4.1C611.3,443.6,610.8,444.9,609.8,445.9z M609.4,468.4v69.3h-7
				v-69.3H609.4z"/>
			<path class="st3" d="M656,534.8c-4.4-3-7.8-7.3-10.2-12.8c-2.4-5.5-3.7-11.9-3.7-19.1c0-7.2,1.2-13.5,3.7-19.1
				c2.4-5.5,5.9-9.8,10.2-12.8c4.4-3,9.4-4.5,15.1-4.5c5.8,0,10.9,1.5,15.3,4.5c4.4,3,7.8,7.3,10.2,12.8s3.7,11.9,3.7,19.1
				c0,7.2-1.2,13.5-3.7,19.1s-5.9,9.8-10.2,12.8c-4.4,3-9.5,4.5-15.3,4.5C665.4,539.3,660.4,537.8,656,534.8z M682.8,528.8
				c3.4-2.5,6-5.9,7.8-10.4c1.9-4.5,2.8-9.6,2.8-15.5c0-5.9-0.9-11-2.8-15.5c-1.9-4.5-4.5-7.9-7.8-10.4c-3.4-2.5-7.2-3.7-11.6-3.7
				c-4.4,0-8.2,1.2-11.5,3.7c-3.3,2.5-5.9,5.9-7.8,10.4s-2.8,9.6-2.8,15.5c0,5.9,0.9,11,2.8,15.5s4.4,7.9,7.8,10.4
				c3.3,2.5,7.2,3.7,11.5,3.7C675.5,532.5,679.4,531.3,682.8,528.8z"/>
		</g>
	</g>
</g>
<g id="图层_2_00000123431267348476335810000000925339357917130651_">
</g>
<g id="图层_4">
</g>
<g>
	<line class="st4" x1="25.7" y1="346.9" x2="25.7" y2="306"/>
	<line class="st4" x1="48.7" y1="346.9" x2="48.7" y2="246.2"/>
	<line class="st4" x1="71.7" y1="346.9" x2="71.7" y2="198.5"/>
	<line class="st4" x1="94.7" y1="346.9" x2="94.7" y2="168.2"/>
	<line class="st4" x1="187.3" y1="346.9" x2="187.3" y2="306"/>
	<line class="st4" x1="164.3" y1="346.9" x2="164.3" y2="246.2"/>
	<line class="st4" x1="141.3" y1="346.9" x2="141.3" y2="198.5"/>
	<line class="st4" x1="118.3" y1="346.9" x2="118.3" y2="168.2"/>
</g>
<g>
	<line class="st4" x1="209.7" y1="346.9" x2="209.7" y2="319"/>
	<line class="st4" x1="232.7" y1="346.9" x2="232.7" y2="278.3"/>
	<line class="st4" x1="255.7" y1="346.9" x2="255.7" y2="245.8"/>
	<line class="st4" x1="278.7" y1="346.9" x2="278.7" y2="225.2"/>
	<line class="st4" x1="371.3" y1="346.9" x2="371.3" y2="319"/>
	<line class="st4" x1="348.3" y1="346.9" x2="348.3" y2="278.3"/>
	<line class="st4" x1="325.3" y1="346.9" x2="325.3" y2="245.8"/>
	<line class="st4" x1="302.3" y1="346.9" x2="302.3" y2="225.2"/>
</g>
<g>
	<line class="st5" x1="393.7" y1="346.9" x2="393.7" y2="337.3"/>
	<line class="st5" x1="416.7" y1="346.9" x2="416.7" y2="323.4"/>
	<line class="st5" x1="439.7" y1="346.9" x2="439.7" y2="312.2"/>
	<line class="st5" x1="462.7" y1="346.9" x2="462.7" y2="305.2"/>
	<line class="st5" x1="555.3" y1="346.9" x2="555.3" y2="337.3"/>
	<line class="st5" x1="532.3" y1="346.9" x2="532.3" y2="323.4"/>
	<line class="st5" x1="509.3" y1="346.9" x2="509.3" y2="312.2"/>
	<line class="st5" x1="486.3" y1="346.9" x2="486.3" y2="305.2"/>
</g>
<path class="st2" d="M50.7,60.2c0,8.4-6.8,15.1-15.1,15.1s-15.1-6.8-15.1-15.1V48.1c0-8.4,6.8-15.1,15.1-15.1s15.1,6.8,15.1,15.1
	L50.7,60.2z M26.5,48.1v12.1c0,5,4.1,9.1,9.1,9.1s9.1-4.1,9.1-9.1V48.1c0-5-4.1-9.1-9.1-9.1S26.5,43.1,26.5,48.1z"/>
<line class="st0" x1="73.8" y1="36.7" x2="73.8" y2="71.7"/>
<path class="st2" d="M130.1,48.1c0-8.4,6.8-15.1,15.1-15.1s15.1,6.8,15.1,15.1v12.1c0,8.4-6.8,15.1-15.1,15.1s-15.1-6.8-15.1-15.1
	V48.1z M145.2,39.1c-5,0-9.1,4.1-9.1,9.1v12.1c0,5,4.1,9.1,9.1,9.1s9.1-4.1,9.1-9.1V48.1C154.3,43.1,150.3,39.1,145.2,39.1z"/>
<line class="st0" x1="107.1" y1="36.7" x2="107.1" y2="71.7"/>
<path class="st2" d="M102.4,117.2c0,8.4-6.8,15.1-15.1,15.1s-15.1-6.8-15.1-15.1v-12.1C72.2,96.7,79,90,87.3,90s15.1,6.8,15.1,15.1
	V117.2z M78.2,105.1v12.1c0,5,4.1,9.1,9.1,9.1s9.1-4.1,9.1-9.1v-12.1c0-5-4.1-9.1-9.1-9.1C82.3,96.1,78.2,100.1,78.2,105.1z"/>
<line class="st0" x1="125.5" y1="93.7" x2="125.5" y2="128.7"/>
<path class="st2" d="M181,117.2c0,8.4-6.8,15.1-15.1,15.1s-15.1-6.8-15.1-15.1v-12.1c0-8.4,6.8-15.1,15.1-15.1s15.1,6.8,15.1,15.1
	V117.2z M156.8,105.1v12.1c0,5,4.1,9.1,9.1,9.1s9.1-4.1,9.1-9.1v-12.1c0-5-4.1-9.1-9.1-9.1C160.9,96.1,156.8,100.1,156.8,105.1z"/>
<line class="st0" x1="204.1" y1="93.7" x2="204.1" y2="128.7"/>
<path class="st2" d="M287.1,48.1c0-8.4,6.8-15.1,15.1-15.1c8.4,0,15.1,6.8,15.1,15.1v12.1c0,8.4-6.8,15.1-15.1,15.1
	c-8.4,0-15.1-6.8-15.1-15.1V48.1z M302.2,39.1c-5,0-9.1,4.1-9.1,9.1v12.1c0,5,4.1,9.1,9.1,9.1s9.1-4.1,9.1-9.1V48.1
	C311.3,43.1,307.2,39.1,302.2,39.1z"/>
<line class="st0" x1="264" y1="36.7" x2="264" y2="71.7"/>
<path class="st2" d="M207.5,48.1c0-8.4,6.8-15.1,15.1-15.1s15.1,6.8,15.1,15.1v12.1c0,8.4-6.8,15.1-15.1,15.1s-15.1-6.8-15.1-15.1
	V48.1z M222.6,39.1c-5,0-9.1,4.1-9.1,9.1v12.1c0,5,4.1,9.1,9.1,9.1s9.1-4.1,9.1-9.1V48.1C231.7,43.1,227.6,39.1,222.6,39.1z"/>
<line class="st0" x1="184.4" y1="36.7" x2="184.4" y2="71.7"/>
<path class="st2" d="M363.9,48.1c0-8.4,6.8-15.1,15.1-15.1c8.4,0,15.1,6.8,15.1,15.1v12.1c0,8.4-6.8,15.1-15.1,15.1
	c-8.4,0-15.1-6.8-15.1-15.1V48.1z M379.1,39.1c-5,0-9.1,4.1-9.1,9.1v12.1c0,5,4.1,9.1,9.1,9.1s9.1-4.1,9.1-9.1V48.1
	C388.1,43.1,384.1,39.1,379.1,39.1z"/>
<line class="st0" x1="340.9" y1="36.7" x2="340.9" y2="71.7"/>
<path class="st2" d="M444.8,60.2c0,8.4-6.8,15.1-15.1,15.1c-8.4,0-15.1-6.8-15.1-15.1V48.1c0-8.4,6.8-15.1,15.1-15.1
	c8.4,0,15.1,6.8,15.1,15.1V60.2z M420.5,48.1v12.1c0,5,4.1,9.1,9.1,9.1s9.1-4.1,9.1-9.1V48.1c0-5-4.1-9.1-9.1-9.1
	S420.5,43.1,420.5,48.1z"/>
<line class="st0" x1="467.8" y1="36.7" x2="467.8" y2="71.7"/>
<path class="st2" d="M259,117.2c0,8.4-6.8,15.1-15.1,15.1s-15.1-6.8-15.1-15.1v-12.1c0-8.4,6.8-15.1,15.1-15.1s15.1,6.8,15.1,15.1
	V117.2z M234.8,105.1v12.1c0,5,4.1,9.1,9.1,9.1s9.1-4.1,9.1-9.1v-12.1c0-5-4.1-9.1-9.1-9.1S234.8,100.1,234.8,105.1z"/>
<line class="st0" x1="282.1" y1="93.7" x2="282.1" y2="128.7"/>
<path class="st2" d="M338.4,105.1c0-8.4,6.8-15.1,15.1-15.1c8.4,0,15.1,6.8,15.1,15.1v12.1c0,8.4-6.8,15.1-15.1,15.1
	c-8.4,0-15.1-6.8-15.1-15.1V105.1z M353.5,96.1c-5,0-9.1,4.1-9.1,9.1v12.1c0,5,4.1,9.1,9.1,9.1s9.1-4.1,9.1-9.1v-12.1
	C362.6,100.1,358.6,96.1,353.5,96.1z"/>
<line class="st0" x1="315.4" y1="93.7" x2="315.4" y2="128.7"/>
<path class="st2" d="M415.8,105.1c0-8.4,6.8-15.1,15.1-15.1c8.4,0,15.1,6.8,15.1,15.1v12.1c0,8.4-6.8,15.1-15.1,15.1
	c-8.4,0-15.1-6.8-15.1-15.1V105.1z M430.9,96.1c-5,0-9.1,4.1-9.1,9.1v12.1c0,5,4.1,9.1,9.1,9.1s9.1-4.1,9.1-9.1v-12.1
	C440,100.1,435.9,96.1,430.9,96.1z"/>
<line class="st0" x1="392.7" y1="93.7" x2="392.7" y2="128.7"/>
<path class="st2" d="M193.1,162.1c0-8.4,6.8-15.1,15.1-15.1c8.4,0,15.1,6.8,15.1,15.1v12.1c0,8.4-6.8,15.1-15.1,15.1
	c-8.4,0-15.1-6.8-15.1-15.1V162.1z M208.2,153.1c-5,0-9.1,4.1-9.1,9.1v12.1c0,5,4.1,9.1,9.1,9.1s9.1-4.1,9.1-9.1v-12.1
	C217.3,157.1,213.2,153.1,208.2,153.1z"/>
<line class="st0" x1="170.1" y1="150.7" x2="170.1" y2="185.7"/>
<path class="st2" d="M273.9,174.2c0,8.4-6.8,15.1-15.1,15.1c-8.4,0-15.1-6.8-15.1-15.1v-12.1c0-8.4,6.8-15.1,15.1-15.1
	c8.4,0,15.1,6.8,15.1,15.1V174.2z M249.7,162.1v12.1c0,5,4.1,9.1,9.1,9.1c5,0,9.1-4.1,9.1-9.1v-12.1c0-5-4.1-9.1-9.1-9.1
	C253.8,153.1,249.7,157.1,249.7,162.1z"/>
<line class="st0" x1="297" y1="150.7" x2="297" y2="185.7"/>
<path class="st2" d="M350.6,174.2c0,8.4-6.8,15.1-15.1,15.1c-8.4,0-15.1-6.8-15.1-15.1v-12.1c0-8.4,6.8-15.1,15.1-15.1
	c8.4,0,15.1,6.8,15.1,15.1V174.2z M326.4,162.1v12.1c0,5,4.1,9.1,9.1,9.1s9.1-4.1,9.1-9.1v-12.1c0-5-4.1-9.1-9.1-9.1
	C330.4,153.1,326.4,157.1,326.4,162.1z"/>
<line class="st0" x1="373.6" y1="150.7" x2="373.6" y2="185.7"/>
<path class="st2" d="M429.9,162.1c0-8.4,6.8-15.1,15.1-15.1s15.1,6.8,15.1,15.1v12.1c0,8.4-6.8,15.1-15.1,15.1s-15.1-6.8-15.1-15.1
	V162.1z M445.1,153.1c-5,0-9.1,4.1-9.1,9.1v12.1c0,5,4.1,9.1,9.1,9.1s9.1-4.1,9.1-9.1v-12.1C454.1,157.1,450.1,153.1,445.1,153.1z"
	/>
<line class="st0" x1="406.9" y1="150.7" x2="406.9" y2="185.7"/>
<path class="st2" d="M384.8,219.1c0-8.4,6.8-15.1,15.1-15.1c8.4,0,15.1,6.8,15.1,15.1v12.1c0,8.4-6.8,15.1-15.1,15.1
	c-8.4,0-15.1-6.8-15.1-15.1V219.1z M399.9,210.1c-5,0-9.1,4.1-9.1,9.1v12.1c0,5,4.1,9.1,9.1,9.1s9.1-4.1,9.1-9.1v-12.1
	C409,214.1,404.9,210.1,399.9,210.1z"/>
<line class="st0" x1="361.7" y1="207.7" x2="361.7" y2="242.7"/>
<path class="st2" d="M523,60.2c0,8.4-6.8,15.1-15.1,15.1s-15.1-6.8-15.1-15.1V48.1c0-8.4,6.8-15.1,15.1-15.1S523,39.8,523,48.1V60.2
	z M498.8,48.1v12.1c0,5,4.1,9.1,9.1,9.1c5,0,9.1-4.1,9.1-9.1V48.1c0-5-4.1-9.1-9.1-9.1C502.8,39.1,498.8,43.1,498.8,48.1z"/>
<path class="st2" d="M437.5,185c0-96.6,78.4-175,175-175s175,78.4,175,175s-78.4,175-175,175S437.5,281.6,437.5,185z M612.5,206.9
	c-12.1,0-21.9-9.8-21.9-21.9c0-12.1,9.8-21.9,21.9-21.9s21.9,9.8,21.9,21.9C634.4,197.1,624.6,206.9,612.5,206.9z M546.9,185
	c0,36.2,29.4,65.6,65.6,65.6s65.6-29.4,65.6-65.6s-29.4-65.6-65.6-65.6S546.9,148.8,546.9,185z M503.1,174.1
	c0-23.9,12-48.6,30.9-67.5s43.6-30.9,67.5-30.9c6,0,10.9-4.9,10.9-10.9s-4.9-10.9-10.9-10.9c-31,0-61,15.2-83.1,37.3
	s-37.3,52-37.3,83.1c0,6,4.9,10.9,10.9,10.9S503.1,180.1,503.1,174.1z"/>
<g>
	<path class="st2" d="M606.5,346.9h-588c-3.3,0-6,2.7-6,6v1.1c0,3.3,2.7,6,6,6h588c3.3,0,6-2.7,6-6v-1.1
		C612.5,349.6,609.8,346.9,606.5,346.9L606.5,346.9z"/>
</g>
<g>
	<path class="st2" d="M606.5,10h-588c-3.3,0-6,2.7-6,6v1.1c0,3.3,2.7,6,6,6h588c3.3,0,6-2.7,6-6V16C612.5,12.7,609.8,10,606.5,10
		L606.5,10z"/>
</g>
</svg>
