<?xml version="1.0" encoding="utf-8"?>
<!-- Generator: Adobe Illustrator 27.0.0, SVG Export Plug-In . SVG Version: 6.00 Build 0)  -->
<svg version="1.1" id="图层_1" xmlns="http://www.w3.org/2000/svg" xmlns:xlink="http://www.w3.org/1999/xlink" x="0px" y="0px"
	 viewBox="0 0 354.3 354.3" style="enable-background:new 0 0 354.3 354.3;" xml:space="preserve">
<style type="text/css">
	.st0{fill:none;stroke:#808E9E;stroke-width:27;stroke-linejoin:round;}
	.st1{fill:none;stroke:#808E9E;stroke-width:27;stroke-linejoin:round;stroke-dasharray:29.1938,29.1938;}
	.st2{fill:none;stroke:#808E9E;stroke-width:27;stroke-linejoin:round;stroke-dasharray:26.6765,26.6765;}
	.st3{fill:#57606E;stroke:#57606E;stroke-width:12;stroke-linecap:round;stroke-linejoin:round;stroke-miterlimit:10;}
	.st4{fill:none;stroke:#57606E;stroke-width:27;stroke-linecap:round;stroke-linejoin:round;stroke-miterlimit:10;}
</style>
<g>
	<g>
		<line class="st0" x1="34.9" y1="110.3" x2="48.4" y2="110.3"/>
		<line class="st1" x1="77.6" y1="110.3" x2="296.6" y2="110.3"/>
		<line class="st0" x1="311.2" y1="110.3" x2="324.7" y2="110.3"/>
	</g>
</g>
<g>
	<g>
		<line class="st0" x1="34.9" y1="330.1" x2="42.9" y2="319.2"/>
		<line class="st2" x1="58.8" y1="297.7" x2="240.9" y2="50.9"/>
		<line class="st0" x1="248.8" y1="40.2" x2="256.9" y2="29.3"/>
	</g>
</g>
<g>
	<path class="st3" d="M255.2,258.9v29.5h41.6v8.9h-50.9v-82.1h49.5v8.9h-40.2v26.1h37.9v8.7H255.2z"/>
</g>
<path class="st4" d="M331.5,83.3c0,0-97.4,19.5-134,43.6S67.2,287.2,41.1,321.7"/>
<path class="st4" d="M301,333.1H54.8c-18.1,0-32.8-14.7-32.8-32.8V54.1C22,36,36.7,21.3,54.8,21.3H301c18.1,0,32.8,14.7,32.8,32.8
	v246.1C333.8,318.4,319.1,333.1,301,333.1z"/>
<g>
</g>
<g>
</g>
<g>
</g>
<g>
</g>
<g>
</g>
<g>
</g>
</svg>
